<svg xmlns="http://www.w3.org/2000/svg" width="14.587" height="14.291" viewBox="0 0 14.587 14.291">
  <g id="bx-alarm-exclamation" transform="translate(-3 -4)">
    <path id="Path_568" data-name="Path 568" d="M10.293,18.291a7.317,7.317,0,0,0,7.293-7.145A7.295,7.295,0,0,0,3,11.145,7.317,7.317,0,0,0,10.293,18.291Zm0-12.7a5.692,5.692,0,0,1,5.673,5.557,5.674,5.674,0,0,1-11.345,0A5.692,5.692,0,0,1,10.293,5.588Z"/>
    <path id="Path_571" data-name="Path 571" d="M11,9h2v5H11Zm0,6h2v2H11Z" transform="translate(-1.707 -2.125)"/>
  </g>
</svg>
