<svg xmlns="http://www.w3.org/2000/svg" width="20" height="20" viewBox="0 0 20 20">
  <g id="Group_1375" data-name="Group 1375" transform="translate(-407.452 -403.252)">
    <g id="Group_684" data-name="Group 684" transform="translate(407.452 403.251)">
      <g id="Group_681" data-name="Group 681" transform="translate(0 6.068)">
        <g id="Group_680" data-name="Group 680">
          <path id="Path_589" data-name="Path 589" d="M424.078,414.88a9.809,9.809,0,0,0-1.311-2.486,11.387,11.387,0,0,0-2.6,1.166,6.757,6.757,0,0,0-1.816-2.383,16.416,16.416,0,0,0-.914,2.494c-1.235,4.007-1.966,5.086-7,6.484-1.364.38-3.108.784-2.978,2.127.243,2.517,7.21,4.539,14.018.653,3.71-2.118,6.363-5.566,5.928-9.718C426.23,413.195,424.7,414.4,424.078,414.88Z" transform="translate(-407.452 -411.177)" fill="#231f20"/>
        </g>
      </g>
      <g id="Group_683" data-name="Group 683" transform="translate(11.995)">
        <g id="Group_682" data-name="Group 682">
          <path id="Path_590" data-name="Path 590" d="M427.269,403.251l-1.174.419a4.594,4.594,0,0,1,.075,2.907,5.152,5.152,0,0,0-4.271,1.666,11.222,11.222,0,0,1,1.547,1.746,6.322,6.322,0,0,1,2.529-.8,9.973,9.973,0,0,1,1.236,1.866,5.629,5.629,0,0,1,2.438-.943,4.337,4.337,0,0,0-2.265-3.213A6.1,6.1,0,0,0,427.269,403.251Z" transform="translate(-421.899 -403.251)" fill="#231f20"/>
        </g>
      </g>
    </g>
  </g>
</svg>
