<svg xmlns="http://www.w3.org/2000/svg" width="20" height="20" viewBox="0 0 20 20">
  <g id="Group_1319" data-name="Group 1319" transform="translate(-2 -2)">
    <path id="Path_2959" data-name="Path 2959" d="M12,2A10,10,0,1,0,22,12,10,10,0,0,0,12,2Zm3.581,14.412H13.693l-.148-.227L12.4,14.431c-.156-.231-.3-.457-.441-.686-.072.118-.146.236-.222.356l-.2.319-1.131,1.762-.148.23h-2.8l.547-.785,2.582-3.709L8.137,8.372l-.543-.784H10.4l.148.223,1.115,1.68c.14.211.268.412.394.616.077-.126.154-.249.23-.373l.159-.256,1.1-1.666.149-.224h2.769l-.556.788-2.468,3.5,2.554,3.755.531.781Z" fill="#fc2f00"/>
  </g>
</svg>
